<svg xmlns="http://www.w3.org/2000/svg" viewBox="0 0 512 640" role="img" aria-labelledby="title desc">
  <title id="title">Bashkia Shkoder</title>
  <desc id="desc">Stemë stilizuar e Bashkisë Shkoder për përdorim në dokumente zyrtare.</desc>
  <defs>
    <clipPath id="shield">
      <path d="M32 16h448v348c0 139-89 224-224 260C121 588 32 503 32 364V16z"/>
    </clipPath>
    <pattern id="lattice" width="94" height="94" patternUnits="userSpaceOnUse" patternTransform="rotate(35)">
      <rect width="94" height="94" fill="#16517d"/>
      <path d="M0 16h94M0 78h94M16 0v94M78 0v94" stroke="#ffffff" stroke-width="12"/>
    </pattern>
  </defs>

  <path d="M32 16h448v348c0 139-89 224-224 260C121 588 32 503 32 364V16z" fill="#ffffff" stroke="#d8c38a" stroke-width="20"/>
  <g clip-path="url(#shield)">
    <rect x="32" y="16" width="448" height="148" fill="#d61f26"/>
    <rect x="32" y="164" width="448" height="18" fill="#ffffff"/>
    <rect x="32" y="182" width="448" height="442" fill="url(#lattice)"/>

    <path d="M112 72l14 18 23-4-4 23 18 13-18 13 4 23-23-4-14 18-14-18-23 4 4-23-18-13 18-13-4-23 23 4z" fill="#ffffff"/>
    <path d="M400 72l14 18 23-4-4 23 18 13-18 13 4 23-23-4-14 18-14-18-23 4 4-23-18-13 18-13-4-23 23 4z" fill="#ffffff"/>

    <path d="M286 70c-9-3-18-5-31-5-35 0-58 18-58 48 0 58 77 39 77 78 0 14-10 25-26 25-17 0-29-13-29-32h-26v28c8 3 20 5 34 5 37 0 61-19 61-50 0-58-77-41-77-78 0-13 10-22 23-22 15 0 24 11 24 26h27V70z" fill="#ffffff"/>
  </g>
</svg>
